<svg width="55" height="55" viewBox="0 0 55 55" fill="none" xmlns="http://www.w3.org/2000/svg">
<path fill-rule="evenodd" clip-rule="evenodd" d="M15.5385 9.52405C13.07 9.93714 14.7315 11.6138 16.7727 11.9054C18.4817 12.1484 21.7571 12.1484 28.8065 12.1241C37.3986 12.0998 41.0775 12.197 41.6235 12.44C42.9764 13.0718 43.5699 15.5018 43.9496 22.087C44.0921 24.4197 44.3768 27.9189 44.5904 29.8628C45.255 36.1078 44.638 36.7153 36.8291 37.0312C33.8146 37.1527 29.8983 37.3957 28.1419 37.5658C19.9296 38.3677 14.8264 38.2218 11.9782 37.0555C9.60465 36.0835 9.72337 35.3059 9.65217 33.6778C9.48602 30.5189 9.5572 24.0795 9.86574 18.2233C10.1268 13.3148 10.4354 12.3428 11.9782 11.6138C12.9275 11.1764 12.5953 10.6661 11.4086 10.7147C9.62841 10.8119 8.25178 11.4194 7.9907 14.2625C7.6584 17.7616 5.5459 36.9826 9.34353 38.6107C11.8357 39.6799 16.1793 40.7247 17.8882 40.7247C19.075 40.7247 19.0276 42.0855 17.8408 42.45C15.1113 43.2519 17.0338 45.1959 20.6415 45.3417C27.952 45.5846 38.633 44.9772 38.7279 44.2725C38.8228 43.5678 37.28 41.964 36.473 41.964C36.2119 41.964 36.0457 41.6481 36.0457 41.1864C36.0457 40.5303 36.0458 39.6069 36.7815 39.6069C39.9383 39.6069 41.6235 39.4611 42.5729 39.2424C47.2012 38.2218 47.3912 35.0143 47.3438 33.1433C47.1776 25.4889 45.7772 18.1747 45.7772 16.4495C45.7535 13.4606 44.0446 10.5203 40.3893 9.98574C38.9653 9.54835 17.9832 9.11095 15.5385 9.52405ZM27.9283 24.3954C27.6435 24.0795 24.8902 20.9449 24.1307 20.143C23.1812 19.1467 22.2081 19.4626 20.1668 21.3822C19.1224 22.3785 17.4848 23.8608 16.5116 24.7113C13.1413 27.6273 12.8801 28.9394 15.6571 28.9394C16.6066 28.9394 17.0575 28.5992 19.8821 25.6347C23.5373 21.7953 23.205 21.8196 26.3856 24.9786C28.5217 27.0926 28.2606 27.117 31.726 24.3468C34.7166 21.5038 36.4255 19.6084 38.5854 17.3971C40.7216 15.2102 37.4461 14.2139 35.7135 15.7204C33.6722 17.4457 27.952 24.3711 27.9283 24.3954ZM35.6185 23.2533C35.1913 24.3711 35.4049 31.8311 35.8796 32.2928C37.0427 33.4835 37.7547 30.932 37.6835 25.8777C37.6361 23.0832 36.3069 21.4066 35.6185 23.2533ZM21.8758 26.2908C21.1401 28.2834 21.7571 33.7265 23.2525 33.4592C24.7477 33.1919 23.7272 27.1898 23.3949 26.3151C23.1812 25.6833 22.1131 25.659 21.8758 26.2908ZM31.536 26.8496C31.1325 27.3599 30.7291 31.1264 30.9902 32.147C31.4412 33.9694 33.3162 33.1676 33.3162 31.1507C33.3162 27.7731 32.4617 25.7076 31.536 26.8496ZM18.0307 29.4497C17.6747 29.8142 17.817 32.5358 18.2442 33.1189C19.0038 34.1881 19.6684 33.5078 19.6684 31.6367C19.6446 29.6927 18.8376 28.5993 18.0307 29.4497ZM26.2193 29.4497C25.6022 30.0815 26.0294 32.6815 26.789 33.046C27.9995 33.6049 28.403 32.0741 27.6672 29.6441C27.5485 29.2067 26.5753 29.0852 26.2193 29.4497ZM32.3431 40.0201C33.2925 40.2874 32.9365 41.1621 33.0314 41.964L22.0657 42.1584C22.0657 42.0855 22.2557 40.1658 22.2557 40.2873C23.0151 40.263 29.9695 39.9715 30.919 39.8986C31.2987 39.85 31.9633 39.9229 32.3431 40.0201Z" fill="#006B99"/>
</svg>
