<svg width="55" height="55" viewBox="0 0 55 55" fill="none" xmlns="http://www.w3.org/2000/svg">
<path fill-rule="evenodd" clip-rule="evenodd" d="M19.3572 8.10604C12.9748 9.33976 9.69438 14.229 9.69438 22.6137C9.67206 31.2041 18.1299 36.4817 26.8331 33.306L28.4399 32.712C29.7566 34.1285 29.9798 34.1285 28.5738 34.9966C27.4581 35.682 27.5695 36.3903 28.2836 36.6644C29.2432 37.03 35.0678 42.7645 35.849 44.1582C38.7277 49.2987 45.9135 47.4938 45.4225 43.4728C45.1994 41.645 43.838 39.5203 42.2312 38.0124C40.446 36.3218 39.4418 34.9509 38.1252 32.3921C36.8531 29.9018 35.7151 29.3535 34.0636 30.3816C33.3495 30.8157 33.2825 30.8385 32.9031 30.473C32.1221 29.7647 32.1667 29.285 33.1263 27.7999C36.7862 22.0425 36.987 17.0163 33.7512 13.0181C29.2432 7.44349 25.3826 9.454 28.0159 11.1903C34.4206 15.3941 34.086 23.9388 27.2573 30.3816C23.4635 33.9685 15.8313 32.0494 13.8675 27.0231C10.7656 19.0268 15.8759 8.47159 24.1552 10.1622C27.0117 10.9162 28.1498 6.41538 19.3572 8.10604ZM18.4646 13.7949C17.505 14.6174 18.1299 15.3256 19.9151 14.069C21.1648 13.2009 21.7675 13.0409 22.9056 13.3151C24.4008 13.6578 25.3156 13.2694 24.8471 12.4926C24.6908 12.2185 21.4103 11.2589 18.4646 13.7949ZM27.4133 13.4979C26.2083 13.4293 25.8958 14.1147 26.7216 15.0058C27.7481 16.1252 29.8013 16.308 29.6896 15.2799C29.6227 14.5717 28.3283 13.5436 27.4133 13.4979ZM35.1795 32.6434C35.3579 33.3974 37.1209 36.0476 38.0582 37.03C39.1964 38.1952 39.6873 38.972 41.1601 40.6169C44.1505 43.9754 40.5799 47.311 37.768 43.1072C34.2198 37.8068 30.9169 36.139 30.9616 35.5221C31.0286 34.7453 35.0232 32.0037 35.1795 32.6434Z" fill="#006B99"/>
</svg>
