<svg width="66" height="21" viewBox="0 0 66 21" fill="none" xmlns="http://www.w3.org/2000/svg">
<path d="M5.59441 20.9176L0 0.964496H3.86191L7.43342 15.6273H7.61738L11.4309 0.964496H14.9444L18.7676 15.6371H18.9418L22.5133 0.964496H26.3753L20.7808 20.9176H17.2383L13.2699 6.91728H13.115L9.13694 20.9176H5.59441ZM31.9416 12.1492V20.9176H28.4378V0.964496H31.8641V8.49563H32.0383C32.3868 7.65126 32.9256 6.98551 33.6547 6.49841C34.3903 6.00476 35.326 5.75789 36.4616 5.75789C37.4941 5.75789 38.3942 5.9755 39.162 6.41072C39.9299 6.84586 40.5236 7.48235 40.943 8.32027C41.3689 9.1581 41.5818 10.1811 41.5818 11.3892V20.9176H38.078V11.9348C38.078 10.9281 37.8199 10.1454 37.3037 9.58679C36.794 9.02172 36.0777 8.73923 35.155 8.73923C34.5355 8.73923 33.9806 8.87561 33.4902 9.14838C33.0063 9.41469 32.6255 9.80113 32.348 10.3078C32.0771 10.8144 31.9416 11.4282 31.9416 12.1492ZM44.8808 20.9176V5.95278H48.3846V20.9176H44.8808ZM46.6424 3.8289C46.0874 3.8289 45.61 3.64373 45.2099 3.27355C44.8099 2.89684 44.6098 2.44544 44.6098 1.91927C44.6098 1.38673 44.8099 0.935326 45.2099 0.565068C45.61 0.188356 46.0874 0 46.6424 0C47.2038 0 47.6813 0.188356 48.0751 0.565068C48.4752 0.935326 48.6752 1.38673 48.6752 1.91927C48.6752 2.44544 48.4752 2.89684 48.0751 3.27355C47.6813 3.64373 47.2038 3.8289 46.6424 3.8289ZM51.715 20.9176V5.95278H55.1121V8.44693H55.2669C55.5387 7.58302 56.0029 6.91728 56.6611 6.44962C57.3253 5.9755 58.0836 5.73844 58.9358 5.73844C59.129 5.73844 59.3453 5.74816 59.5838 5.7677C59.8291 5.78069 60.0326 5.80341 60.1942 5.83585V9.08023C60.0454 9.02826 59.8103 8.98274 59.4872 8.94376C59.1709 8.89833 58.8649 8.87561 58.5674 8.87561C57.9288 8.87561 57.3544 9.01527 56.8449 9.29449C56.3414 9.56734 55.9447 9.94732 55.6541 10.4344C55.3643 10.9215 55.219 11.4834 55.219 12.1199V20.9176H51.715ZM65.7532 0.964496V20.9176H62.2492V0.964496H65.7532Z" fill="#2D2D2D"/>
</svg>
